<?xml version="1.0" encoding="UTF-8"?>
<svg width="700pt" height="700pt" version="1.1" viewBox="0 0 700 700" fill="pink" xmlns="http://www.w3.org/2000/svg" xmlns:xlink="http://www.w3.org/1999/xlink">
 <defs>
 </defs>
 <g>
  <path d="m519.7 242.33h-19.043v-6.8203c0-5.832-4.7305-10.562-10.562-10.562l-356 0.003906c-5.832 0-10.562 4.7305-10.562 10.562v91.695c0 86.746 58.598 159.77 138.36 181.75-31.793 6.7539-60.02 19.719-82.062 37.039h264.52c-22.039-17.32-50.266-30.285-82.062-37.043 58.516-16.125 105.63-59.711 126.58-116.06 49.16-3.3516 88.074-44.629 87.582-94.738-0.29688-30.98-25.773-55.828-56.754-55.828zm-323.39 168.85c-1.7188 1.2188-3.6914 1.8008-5.6484 1.8008-3.0586 0-6.0703-1.4297-7.9766-4.1094-14.961-21.078-22.871-46.523-22.871-73.594l0.003906-58.395c0-5.3984 4.375-9.7734 9.7695-9.7734 5.3945 0 9.7695 4.375 9.7695 9.7734v58.395c0 22.988 6.6602 44.523 19.266 62.277 3.1211 4.4023 2.0859 10.5-2.3125 13.625zm302.4-52.812v-4.2227c1.2617-8.8047 1.9492-17.789 1.9492-26.938v-52.285h19.043c13.328 0 24.172 10.844 24.172 24.172 0 28.012-18.66 52.043-45.164 59.273z"/>
  <path d="m275.84 180.45s-13-40.449-50.461-91.668c-1.0234-1.3984 23.41 19.238 44.688 55.918 0.23828-8.5078 1.6953-16.543 4.6484-24.031 4.0625-10.316 10.754-19.48 19.883-27.703-7.0781-8.9727-17.273-17.492-30.996-25.621-53.93-31.93-67.852-53.34-67.852-53.34-45.668 93.059 17.195 171.58 80.09 166.45z"/>
  <path d="m293.75 201.25c38.723-62.914 92.836-94.395 90.91-92.551-55.84 53.504-80.035 99.285-80.035 99.285 74.387 19.527 166.52-61.34 131.48-182.72 0 0-21.258 22.734-92.766 49.582-66.773 25.082-79.52 66.082-49.594 126.41z"/>
  <use x="70" y="644" xlink:href="#u"/>
  <use x="90.550781" y="644" xlink:href="#a"/>
  <use x="104.359375" y="644" xlink:href="#b"/>
  <use x="123.347656" y="644" xlink:href="#h"/>
  <use x="142.242188" y="644" xlink:href="#c"/>
  <use x="155.628906" y="644" xlink:href="#b"/>
  <use x="174.617188" y="644" xlink:href="#g"/>
  <use x="204.410156" y="644" xlink:href="#l"/>
  <use x="224.453125" y="644" xlink:href="#k"/>
  <use x="252.453125" y="644" xlink:href="#f"/>
  <use x="274.121094" y="644" xlink:href="#a"/>
  <use x="287.929688" y="644" xlink:href="#e"/>
  <use x="297.527344" y="644" xlink:href="#j"/>
  <use x="319.457031" y="644" xlink:href="#f"/>
  <use x="341.125" y="644" xlink:href="#a"/>
  <use x="354.9375" y="644" xlink:href="#e"/>
  <use x="364.53125" y="644" xlink:href="#t"/>
  <use x="381.199219" y="644" xlink:href="#h"/>
  <use x="400.09375" y="644" xlink:href="#i"/>
  <use x="420.027344" y="644" xlink:href="#g"/>
  <use x="440.070312" y="644" xlink:href="#e"/>
  <use x="70" y="672" xlink:href="#j"/>
  <use x="82.183594" y="672" xlink:href="#a"/>
  <use x="95.992188" y="672" xlink:href="#d"/>
  <use x="115.226562" y="672" xlink:href="#s"/>
  <use x="154.152344" y="672" xlink:href="#c"/>
  <use x="167.535156" y="672" xlink:href="#r"/>
  <use x="187.46875" y="672" xlink:href="#b"/>
  <use x="216.207031" y="672" xlink:href="#q"/>
  <use x="239.640625" y="672" xlink:href="#d"/>
  <use x="258.878906" y="672" xlink:href="#p"/>
  <use x="278.8125" y="672" xlink:href="#i"/>
  <use x="308.492188" y="672" xlink:href="#o"/>
  <use x="329.015625" y="672" xlink:href="#a"/>
  <use x="342.820312" y="672" xlink:href="#d"/>
  <use x="362.058594" y="672" xlink:href="#n"/>
  <use x="371.65625" y="672" xlink:href="#b"/>
  <use x="390.648438" y="672" xlink:href="#m"/>
  <use x="407.242188" y="672" xlink:href="#c"/>
 </g>
</svg>
